<svg width="130" height="130" viewBox="0 0 130 130" fill="none" xmlns="http://www.w3.org/2000/svg">
<rect x="10.5625" y="10.5625" width="108.875" height="108.875" rx="20" fill="#2F3044"/>
<path d="M85.3734 54.25C85.2601 54.25 85.1845 54.2881 85.0712 54.2881L69.9209 39H53.2594V46.625H66.8228L74.3791 54.25H43.7763C34.4065 54.25 26.8125 61.9512 26.8125 71.4062C26.8125 80.8994 34.4065 88.5625 43.8141 88.5625C52.2015 88.5625 59.1533 82.3862 60.5134 74.3419L68.523 69.5C68.4474 70.1481 68.3719 70.7581 68.3719 71.4062C68.3719 80.8994 75.9659 88.5625 85.3734 88.5625C94.781 88.5625 102.375 80.8994 102.375 71.4062C102.375 61.9131 94.781 54.25 85.3734 54.25ZM52.6549 74.3037C51.4459 78.1544 47.8944 80.9375 43.7007 80.9375C38.4869 80.9375 34.2554 76.6675 34.2554 71.4062C34.2554 66.145 38.4869 61.875 43.7007 61.875C47.9322 61.875 51.4459 64.6962 52.6549 68.5469H41.925V74.2656L52.6549 74.3037ZM85.2601 80.9375C80.0463 80.9375 75.8148 76.6675 75.8148 71.4062C75.8148 66.145 80.0463 61.875 85.2601 61.875C90.4739 61.875 94.7054 66.145 94.7054 71.4062C94.7054 76.6675 90.4739 80.9375 85.2601 80.9375Z" fill="white"/>
<circle cx="85.5" cy="71.5" r="9.5" fill="#2F3044"/>
<circle cx="43.5" cy="71.5" r="9.5" fill="#2F3044"/>
<path d="M97.3416 27.6268C97.4573 27.6938 97.5468 27.7981 97.5955 27.9226C97.6442 28.0471 97.6493 28.1844 97.6099 28.3122L95.4816 35.2277H99.4085C99.5239 35.2277 99.6368 35.2614 99.7332 35.3248C99.8297 35.3882 99.9054 35.4784 99.9512 35.5844C99.9969 35.6903 100.011 35.8073 99.9907 35.921C99.9707 36.0346 99.9178 36.14 99.8386 36.2239L90.3847 46.2687C90.2933 46.366 90.1715 46.4294 90.0394 46.4486C89.9073 46.4679 89.7725 46.4418 89.6571 46.3746C89.5417 46.3075 89.4524 46.2032 89.4039 46.0788C89.3553 45.9544 89.3503 45.8172 89.3897 45.6897L91.518 38.7729H87.5911C87.4757 38.773 87.3628 38.7392 87.2664 38.6759C87.1699 38.6125 87.0942 38.5222 87.0484 38.4163C87.0027 38.3104 86.9889 38.1933 87.0089 38.0797C87.0289 37.966 87.0818 37.8607 87.161 37.7767L96.6149 27.732C96.7062 27.6348 96.8278 27.5714 96.9597 27.5521C97.0917 27.5328 97.2263 27.5587 97.3416 27.6256V27.6268Z" fill="white"/>
</svg>
